PathFileType	4	(X/Y/Z)	C:/Users/opensim2020/Desktop/walking_exp_matlab/subject02_walking13_straight_02.trc																																																																																																																									
DataRate	CameraRate	NumFrames	NumMarkers	Units	OrigDataRate	OrigDataStartFrame	OrigNumFrames																																																																																																																					
100	100	7	41	mm	100	975	125																																																																																																																					
Frame#	Time	LFHD			RFHD			LBHD			RBHD			C7			T10			CLAV			STRN			RBAK			LSHO			LUPA			LELB			LFRM			LWRA			LWRB			LFIN			RSHO			RUPA			RELB			RFRM			RWRA			RWRB			RFIN			LASI			RASI			LPSI			RPSI			LTHI			LKNE			LTIB			LANK			LHEE			LTOE			RTHI			RKNE			RTIB			RANK			RHEE			RTOE			*39			*40		
		X1	Y1	Z1	X2	Y2	Z2	X3	Y3	Z3	X4	Y4	Z4	X5	Y5	Z5	X6	Y6	Z6	X7	Y7	Z7	X8	Y8	Z8	X9	Y9	Z9	X10	Y10	Z10	X11	Y11	Z11	X12	Y12	Z12	X13	Y13	Z13	X14	Y14	Z14	X15	Y15	Z15	X16	Y16	Z16	X17	Y17	Z17	X18	Y18	Z18	X19	Y19	Z19	X20	Y20	Z20	X21	Y21	Z21	X22	Y22	Z22	X23	Y23	Z23	X24	Y24	Z24	X25	Y25	Z25	X26	Y26	Z26	X27	Y27	Z27	X28	Y28	Z28	X29	Y29	Z29	X30	Y30	Z30	X31	Y31	Z31	X32	Y32	Z32	X33	Y33	Z33	X34	Y34	Z34	X35	Y35	Z35	X36	Y36	Z36	X37	Y37	Z37	X38	Y38	Z38	X39	Y39	Z39	X40	Y40	Z40	X41	Y41	Z41
																																																																																																																												
110	1.09	473.13028	1714.22192	-1467.80566	436.64294	1684.16626	-1331.05347	335.10654	1674.0863	-1512.15002	287.72964	1645.55652	-1378.74927	239.96309	1524.32104	-1460.42773	196.67743	1240.92175	-1477.29175	378.52267	1456.16382	-1465.42603	437.19107	1288.50012	-1468.16675	179.28862	1336.89929	-1415.95447	321.21555	1513.37842	-1634.54724	356.50797	1330.32593	-1746.72168	398.29367	1199.58032	-1785.14587	461.85901	1084.67285	-1809.46204	560.56946	989.12604	-1782.05872	520.94598	977.39301	-1820.82068	566.38788	930.45148	-1829.39355	295.94315	1471.25781	-1273.82397	257.72147	1280.48914	-1199.922	274.7988	1133.98328	-1176.24829	324.01654	1021.62164	-1166.50391	396.71274	909.40436	-1196.33752	353.03934	894.86267	-1162.29248	401.58713	839.72711	-1167.73022	424.42084	991.88849	-1625.89526	433.32333	972.64856	-1374.22913	219.0033	1032.71301	-1537.47156	216.20227	1025.49963	-1422.00317	337.03796	677.59027	-1674.66846	286.42978	478.28958	-1646.31262	216.11656	296.04877	-1650.71362	205.1433	70.95505	-1616.20203	165.21074	42.96378	-1568.57654	361.64645	32.30679	-1619.49072	437.83707	677.59625	-1293.89063	503.02603	483.51486	-1325.22852	437.56512	307.5238	-1337.29626	396.82468	123.23196	-1386.56299	370.37112	72.82967	-1452.74365	530.37592	50.2015	-1347.8302	369.88983	1794.42505	-1391.98511	-2845.84937	1034.23865	3357.29321
111	1.1	486.47015	1712.51819	-1465.82764	448.89246	1681.86316	-1329.45496	348.00705	1672.81799	-1510.84363	300.41974	1643.96057	-1377.29688	252.61444	1522.90295	-1459.34253	208.81531	1239.57922	-1475.90955	391.08798	1454.40198	-1464.13086	449.43115	1286.66113	-1467.63501	192.30627	1335.21252	-1414.52258	334.41296	1512.41748	-1633.05029	372.47983	1331.06067	-1745.84741	417.57095	1201.54846	-1785.09375	485.18256	1088.84326	-1808.80664	587.68628	997.7948	-1781.67432	548.54004	983.97595	-1820.04919	595.87811	938.70453	-1828.35864	309.02316	1469.17664	-1272.35938	268.97119	1278.80103	-1199.12842	284.19257	1132.14771	-1175.58191	331.27972	1018.76044	-1165.27002	401.31967	905.12451	-1195.04895	357.57318	891.44135	-1160.89478	404.97488	835.55304	-1166.15356	434.77734	989.9939	-1626.47498	446.49551	970.95142	-1374.11633	230.13896	1031.09241	-1534.8573	228.7668	1024.05579	-1419.52759	344.61942	676.44891	-1674.05701	291.48441	477.73355	-1645.28223	218.65405	296.46631	-1649.54919	205.58788	71.29167	-1615.66589	165.50336	43.44981	-1568.04761	361.88086	32.20678	-1619.57666	452.8638	677.34967	-1293.38232	518.56616	482.25613	-1325.6731	464.36874	301.79556	-1336.52063	436.85843	114.39049	-1384.14417	413.95438	62.26745	-1449.97156	575.3678	50.52252	-1345.40454	382.97488	1792.79248	-1390.09912	-2845.73877	1034.36816	3357.27734
112	1.11	499.38525	1710.39063	-1463.55518	461.54315	1679.5769	-1327.41272	361.08084	1671.23474	-1509.06238	313.06433	1642.19019	-1375.77283	265.54004	1521.25061	-1458.06702	221.0388	1238.00317	-1474.25305	403.75427	1452.6051	-1462.80164	461.82706	1284.68628	-1466.9209	204.43484	1333.74878	-1413.58044	347.60132	1511.47632	-1631.40369	388.34601	1331.70667	-1744.78967	436.42096	1203.40881	-1784.7179	508.40555	1092.97742	-1807.80786	614.16241	1006.38055	-1780.72607	575.45563	990.71753	-1818.86035	624.60913	947.30072	-1826.99939	321.72479	1467.05762	-1271.04187	280.0231	1276.96619	-1198.37048	293.68851	1130.21228	-1174.71143	338.5416	1016.40863	-1164.31458	406.46271	901.1134	-1193.52405	362.15475	888.28119	-1159.60791	409.04749	831.67236	-1164.28687	445.60794	988.17365	-1626.89001	459.75049	969.09723	-1373.63025	241.47342	1029.19861	-1532.23474	241.43671	1022.30542	-1417.19824	352.07874	675.33521	-1673.26221	296.75824	477.19418	-1644.21594	221.52379	296.86694	-1648.35156	206.03035	71.74524	-1615.10852	165.94006	44.3639	-1567.17175	362.09387	32.03415	-1619.62036	467.09085	676.44067	-1293.02429	532.44409	480.40216	-1326.34082	490.27933	296.41235	-1335.74438	476.84082	106.77987	-1381.48401	457.89899	53.85141	-1447.02869	619.63269	51.67252	-1342.42639	396.03329	1790.86243	-1387.99707	-2846.0603	1034.41296	3357.38623
113	1.12	512.479	1708.2168	-1461.26001	474.17798	1677.11572	-1325.31836	374.20786	1669.46497	-1507.26465	325.69312	1640.21118	-1374.16284	278.0322	1519.41846	-1456.80322	233.33034	1236.2113	-1472.52246	416.38913	1450.59058	-1461.34106	474.27176	1282.62646	-1466.06836	217.13782	1331.80383	-1412.59363	360.64487	1510.32629	-1629.67297	404.21692	1332.25293	-1743.55151	454.94824	1205.17517	-1784.13733	530.89612	1097.25305	-1806.82532	639.85822	1014.78076	-1779.32715	601.7699	997.46368	-1817.2384	652.61383	956.12866	-1825.47986	334.09103	1464.7937	-1269.78345	290.98892	1275.13916	-1197.57837	302.922	1128.29028	-1173.93018	345.53464	1013.58923	-1163.14282	411.52701	896.92017	-1191.79846	367.22861	885.22327	-1158.01929	412.7648	827.67859	-1162.42334	456.49335	986.15131	-1626.19763	473.07779	967.12219	-1372.83044	253.11456	1026.97107	-1529.67615	254.16624	1020.17255	-1414.91528	359.56815	674.2901	-1672.4895	302.25128	476.57507	-1643.12756	224.57562	297.32065	-1647.33679	206.48763	72.25234	-1614.55505	166.25977	44.76573	-1566.64819	362.32278	31.89669	-1619.72559	480.75333	674.89343	-1292.63989	545.81165	478.11819	-1326.75854	515.58124	291.43152	-1334.89929	516.87488	101.00577	-1378.82678	501.09879	46.9017	-1443.75806	662.6355	54.31474	-1338.87708	409.11292	1788.56323	-1385.65967	-2845.93018	1034.2926	3357.29224
114	1.13	525.50635	1705.82837	-1458.83398	486.75537	1674.51062	-1323.12329	387.28973	1667.49438	-1505.2981	338.44537	1638.02966	-1372.35266	290.76624	1517.42688	-1455.271	245.76622	1234.23743	-1470.65845	429.10666	1448.41516	-1459.7738	486.81918	1280.40674	-1465.0459	229.11351	1329.57031	-1411.64685	373.7915	1508.94849	-1627.68738	419.797	1332.7157	-1742.15552	473.09595	1206.81958	-1783.37146	552.84058	1101.32251	-1805.54114	664.66797	1023.25696	-1777.56946	627.25208	1004.13904	-1815.24402	679.71826	964.89856	-1823.39917	346.74326	1462.45337	-1268.27136	301.45874	1272.88782	-1196.69128	312.52469	1126.24414	-1172.90466	353.32654	1010.82593	-1161.5603	417.07397	893.01343	-1189.81689	372.26761	882.1203	-1156.14661	417.11856	823.8418	-1160.19385	467.20657	984.41205	-1625.83704	486.46738	965.14014	-1371.84961	264.91702	1024.48804	-1527.01404	266.97485	1017.70544	-1412.79688	367.16302	673.23645	-1671.64844	308.0834	475.98828	-1641.95605	228.04884	297.75366	-1646.21521	206.92857	72.84508	-1613.90112	166.9052	45.61002	-1565.52112	362.47998	31.7947	-1619.85706	493.72321	672.65442	-1292.20874	558.51501	475.26587	-1327.58337	540.39661	287.1268	-1333.9082	555.05841	96.61304	-1375.85376	543.85474	41.93787	-1441.61133	703.89893	58.64855	-1334.65637	422.13208	1786.27417	-1383.32739	-2845.22119	1034.25122	3360.41577
115	1.14	538.57025	1703.33081	-1456.34595	499.50262	1671.73401	-1320.70044	400.39972	1665.37439	-1503.23401	351.17233	1635.67383	-1370.53577	303.45166	1515.2843	-1453.64539	258.29776	1231.98669	-1468.61353	441.85483	1446.1731	-1458.16895	499.47656	1278.19934	-1463.89526	242.01929	1327.55005	-1410.19019	386.78745	1507.39832	-1625.48718	435.24576	1333.01538	-1740.65405	490.94009	1208.28394	-1782.36877	574.17694	1105.46265	-1804.16272	688.61945	1031.58582	-1775.45471	652.10187	1010.80493	-1813.03394	706.32922	973.65741	-1820.84802	358.80518	1459.93994	-1266.91187	312.24911	1270.70398	-1195.64282	321.77048	1124.15308	-1171.94104	360.67557	1007.97858	-1159.98022	423.13168	889.12811	-1187.52222	377.69177	879.086	-1154.1637	421.42288	819.93994	-1157.86353	478.91315	982.62061	-1625.11182	500.0878	963.08142	-1370.5553	276.98074	1021.73224	-1524.45056	279.854	1014.94061	-1410.69702	374.99683	672.03717	-1670.73328	314.46921	475.30627	-1640.83496	231.70326	298.32599	-1645.29358	207.44582	73.58752	-1613.34521	166.91977	46.7205	-1564.9624	362.65637	31.70497	-1619.9646	505.94052	669.87201	-1291.59753	570.61194	472.31778	-1328.26086	564.48627	283.5148	-1332.95728	592.01489	93.75161	-1373.06152	584.99707	38.44191	-1438.49243	742.96893	64.29672	-1330.01501	435.15723	1783.88354	-1380.94189	-2845.17358	1034.16089	3360.38354
116	1.15	551.61481	1700.75037	-1453.71692	512.14362	1668.95532	-1318.2522	413.50552	1663.12024	-1501.03357	363.82709	1633.21582	-1368.51648	316.10077	1512.97302	-1451.8269	271.32727	1229.49512	-1466.14343	454.63596	1443.78308	-1456.25024	512.15509	1275.8656	-1462.54626	254.68623	1324.86951	-1408.61963	399.7243	1505.75488	-1623.16833	450.49652	1333.13171	-1738.99292	508.50076	1209.56824	-1781.19214	595.18005	1109.28442	-1802.3363	711.92438	1039.72705	-1772.99353	676.36505	1017.02979	-1810.0282	731.68982	982.63007	-1818.5564	371.36694	1457.38208	-1265.12891	324.11414	1268.46667	-1194.06531	331.41144	1121.89417	-1170.66028	368.65881	1005.41229	-1158.24841	429.60181	885.89294	-1185.22681	383.46887	876.01855	-1151.98596	426.06406	816.13135	-1155.37573	490.71439	980.81488	-1623.92761	513.67969	960.94757	-1369.15967	289.36768	1018.73853	-1521.88196	292.84976	1011.94458	-1408.63318	383.31802	670.9212	-1669.90332	321.45886	474.59033	-1639.7019	235.88428	298.89984	-1644.30481	208.18063	74.31414	-1612.70581	167.36626	48.35135	-1564.01086	362.92932	31.59911	-1620.11951	517.50952	666.15625	-1290.74426	582.97754	469.25833	-1328.90637	587.82587	280.75412	-1332.05225	627.20856	92.48759	-1370.21619	623.69171	37.23899	-1436.14307	779.59943	70.74667	-1325.47729	448.17737	1781.32996	-1378.40186	-2845.27002	1034.15063	3360.45288
